<svg xmlns="http://www.w3.org/2000/svg" width="158.9" height="27.806" viewBox="0 0 158.9 27.806">
  <g id="Grupo_18" data-name="Grupo 18" transform="translate(-1437.403 -7776.597)">
    <g id="Social_Icons" data-name="Social Icons" transform="translate(436.403 7649.597)">
      <path id="Twitter_Icon" data-name="Twitter Icon" d="M31.38,13a11.351,11.351,0,0,1-3.277.9,5.715,5.715,0,0,0,2.508-3.156,11.419,11.419,0,0,1-3.623,1.385,5.709,5.709,0,0,0-9.72,5.2A16.2,16.2,0,0,1,5.51,11.37a5.712,5.712,0,0,0,1.766,7.616,5.688,5.688,0,0,1-2.584-.714c0,.024,0,.048,0,.072a5.709,5.709,0,0,0,4.576,5.594,5.736,5.736,0,0,1-1.5.2,5.652,5.652,0,0,1-1.074-.1A5.711,5.711,0,0,0,12.02,28a11.511,11.511,0,0,1-8.446,2.362,16.143,16.143,0,0,0,8.745,2.563c10.493,0,16.231-8.692,16.231-16.231q0-.371-.016-.739A11.554,11.554,0,0,0,31.38,13Z" transform="translate(997.426 119.455)" fill="#fff"/>
      <path id="Instagram_Icon" data-name="Instagram Icon" d="M8.184,27.805a8.177,8.177,0,0,1-5.83-2.186,8.064,8.064,0,0,1-2.355-6V8.128C0,3.252,3.252,0,8.128,0H19.677a7.983,7.983,0,0,1,5.886,2.3,8.036,8.036,0,0,1,2.242,5.83V19.677a8.025,8.025,0,0,1-2.3,5.942,8.278,8.278,0,0,1-5.886,2.186ZM4.093,4.037A5.584,5.584,0,0,0,2.579,8.128V19.621a5.63,5.63,0,0,0,1.514,4.148,5.79,5.79,0,0,0,4.092,1.458H19.621a5.8,5.8,0,0,0,4.093-1.458,5.476,5.476,0,0,0,1.625-4.092V8.128a5.78,5.78,0,0,0-1.514-4.035,5.584,5.584,0,0,0-4.092-1.514H8.184A5.7,5.7,0,0,0,4.093,4.037Zm2.97,9.807A6.839,6.839,0,1,1,13.9,20.683,6.853,6.853,0,0,1,7.063,13.844Zm2.459,0A4.381,4.381,0,1,0,13.9,9.462,4.4,4.4,0,0,0,9.522,13.844ZM19.6,6.552A1.707,1.707,0,1,1,21.309,8.26,1.707,1.707,0,0,1,19.6,6.552Z" transform="translate(1070.514 127)" fill="#fff"/>
      <path id="Facebook_Icon" data-name="Facebook Icon" d="M30.9,15.1H26.5V12.214a1.175,1.175,0,0,1,1.224-1.336h3.105V6.113L26.555,6.1c-4.747,0-5.828,3.554-5.828,5.828V15.1H17.982v4.91h2.745V33.9H26.5V20.009h3.9Z" transform="translate(1128.998 120.904)" fill="#fff"/>
    </g>
  </g>
</svg>
