<svg xmlns="http://www.w3.org/2000/svg" width="327.57" height="86.11" viewBox="0 0 327.57 86.11">
  <g id="Grupo_9" data-name="Grupo 9" transform="translate(-264 -117)">
    <g id="Camada_2" data-name="Camada 2" transform="translate(264.003 117)">
      <g id="Layer_1" data-name="Layer 1" transform="translate(-0.003)">
        <path id="Caminho_2079" data-name="Caminho 2079" d="M157.3,44.835a2,2,0,0,1-.654,1.476,1.9,1.9,0,0,1-1.091.28,11.378,11.378,0,0,1-1.465-.123,10.877,10.877,0,0,0-1.529-.128,11.414,11.414,0,0,0-5.543,1.319,9.616,9.616,0,0,0-3.8,3.635,10.008,10.008,0,0,0-1.371,5.205V75.581a1.879,1.879,0,0,1-.5,1.348,1.751,1.751,0,0,1-1.365.537,1.826,1.826,0,0,1-1.873-1.885V45.028a1.809,1.809,0,0,1,.531-1.383,1.873,1.873,0,0,1,1.342-.5,1.844,1.844,0,0,1,1.365.5,1.879,1.879,0,0,1,.5,1.383v3.886a13.223,13.223,0,0,1,4.61-4.516,11.939,11.939,0,0,1,6.1-1.628Q157.3,42.77,157.3,44.835Z" transform="translate(-57.516 -17.813)" fill="#fff"/>
        <path id="Caminho_2080" data-name="Caminho 2080" d="M174.518,75.529a16.525,16.525,0,0,1-6.261-6.3,18.758,18.758,0,0,1,.012-17.867,16.525,16.525,0,0,1,6.261-6.3,18.375,18.375,0,0,1,17.757,0,16.484,16.484,0,0,1,6.261,6.3,18.673,18.673,0,0,1,0,17.867,16.485,16.485,0,0,1-6.29,6.3,18.375,18.375,0,0,1-17.757,0Zm15.889-3.04a13,13,0,0,0,4.89-5.018,15.288,15.288,0,0,0,0-14.3,13.275,13.275,0,0,0-4.89-5.018A13.643,13.643,0,0,0,171.531,53.2a15.026,15.026,0,0,0,0,14.3,13.193,13.193,0,0,0,4.919,5.018,14.285,14.285,0,0,0,13.958,0Z" transform="translate(-69.133 -17.813)" fill="#fff"/>
        <path id="Caminho_2081" data-name="Caminho 2081" d="M237.477,75.57a16.338,16.338,0,0,1-6.057-6.3,18.089,18.089,0,0,1-2.212-8.9,19.257,19.257,0,0,1,2.054-8.934A15.708,15.708,0,0,1,237,45.162a15.207,15.207,0,0,1,8.222-2.293,16.788,16.788,0,0,1,7.288,1.57,16.006,16.006,0,0,1,5.73,4.639,2.008,2.008,0,0,1,.438,1.068,1.535,1.535,0,0,1-.869,1.377,1.488,1.488,0,0,1-1,.379,1.716,1.716,0,0,1-1.465-.753,12.645,12.645,0,0,0-10.153-4.767,11.7,11.7,0,0,0-6.419,1.786,11.822,11.822,0,0,0-4.33,4.989,16.549,16.549,0,0,0-1.523,7.206,15.113,15.113,0,0,0,1.681,7.148,12.592,12.592,0,0,0,4.668,5.018,12.9,12.9,0,0,0,6.851,1.821,12.265,12.265,0,0,0,8.753-3.075,1.8,1.8,0,0,1,1.313-.584,1.517,1.517,0,0,1,1.12.438,1.809,1.809,0,0,1,.624,1.383,1.429,1.429,0,0,1-.5,1.126,15.382,15.382,0,0,1-5.059,3.151,17.681,17.681,0,0,1-6.232,1.1A16.63,16.63,0,0,1,237.477,75.57Z" transform="translate(-95.458 -17.854)" fill="#fff"/>
        <path id="Caminho_2082" data-name="Caminho 2082" d="M312.569,65.6a1.8,1.8,0,0,1-.689,1.319,1.879,1.879,0,0,1-1.12.5,1.616,1.616,0,0,1-1.307-.753l-13.52-16.613-5.794,5.328v9.99a1.873,1.873,0,0,1-.5,1.348,1.791,1.791,0,0,1-1.371.537,1.826,1.826,0,0,1-1.873-1.885V20.147a1.815,1.815,0,0,1,.531-1.377,1.861,1.861,0,0,1,1.342-.5,1.838,1.838,0,0,1,1.371.5,1.861,1.861,0,0,1,.5,1.377V50.787L309.453,33.1a1.937,1.937,0,0,1,1.167-.5,1.61,1.61,0,0,1,1.22.683,1.675,1.675,0,0,1,.584,1.167,1.611,1.611,0,0,1-.624,1.167l-13.252,12.12,13.584,16.741a1.669,1.669,0,0,1,.438,1.126Z" transform="translate(-119.276 -7.607)" fill="#fff"/>
        <path id="Caminho_2083" data-name="Caminho 2083" d="M357.177,45a14.85,14.85,0,0,1,5.584,5.987,18.567,18.567,0,0,1,2,8.718,1.68,1.68,0,0,1-.5,1.284,1.826,1.826,0,0,1-1.307.473H336.836a14.115,14.115,0,0,0,1.931,6.611,12.429,12.429,0,0,0,4.668,4.546,13.176,13.176,0,0,0,6.541,1.634,15.049,15.049,0,0,0,4.89-.846,10.445,10.445,0,0,0,3.9-2.229,2.054,2.054,0,0,1,1.307-.5,1.786,1.786,0,0,1,1.8,1.692,1.7,1.7,0,0,1-.583,1.167,15.866,15.866,0,0,1-5.2,3.005,17.64,17.64,0,0,1-6.139,1.167,17.126,17.126,0,0,1-8.753-2.223,15.755,15.755,0,0,1-6.01-6.209,18.416,18.416,0,0,1-2.182-9,19.723,19.723,0,0,1,2.025-9.056,15.1,15.1,0,0,1,5.672-6.209,15.638,15.638,0,0,1,8.315-2.229A15.423,15.423,0,0,1,357.177,45Zm-16.339,4.61a13.831,13.831,0,0,0-3.956,8.589h24.234a13.124,13.124,0,0,0-3.735-8.589,11.39,11.39,0,0,0-8.35-3.262,11.256,11.256,0,0,0-8.175,3.262Z" transform="translate(-138.688 -17.815)" fill="#fff"/>
        <path id="Caminho_2084" data-name="Caminho 2084" d="M405.671,66.629a1.92,1.92,0,0,1,.531,1.406,1.827,1.827,0,0,1-.531,1.348,1.9,1.9,0,0,1-1.4.537h-1.435a11.869,11.869,0,0,1-6.1-1.57,11.029,11.029,0,0,1-4.178-4.295,12.685,12.685,0,0,1-1.494-6.174V40.26H386.2a1.657,1.657,0,0,1-1.214-.467,1.674,1.674,0,0,1-.467-1.225,1.611,1.611,0,0,1,1.681-1.692h4.861V26.658a1.9,1.9,0,0,1,.531-1.412,1.809,1.809,0,0,1,1.342-.537,1.9,1.9,0,0,1,1.4.537,1.92,1.92,0,0,1,.525,1.412V36.875h8.228a1.628,1.628,0,0,1,1.214.473,1.651,1.651,0,0,1,.467,1.22,1.675,1.675,0,0,1-.467,1.225,1.651,1.651,0,0,1-1.214.467h-8.228V57.882a8.111,8.111,0,0,0,2.247,5.923,7.737,7.737,0,0,0,5.783,2.287h1.371A1.9,1.9,0,0,1,405.671,66.629Z" transform="translate(-160.141 -10.29)" fill="#fff"/>
        <path id="Caminho_2085" data-name="Caminho 2085" d="M457.564,29.81a20.277,20.277,0,0,1,7.755,7.843,23.1,23.1,0,0,1,2.813,11.472V66.332A23.924,23.924,0,0,1,465.359,77.8a20.709,20.709,0,0,1-7.8,8.169,21.806,21.806,0,0,1-11.355,2.982,24.917,24.917,0,0,1-10.608-2.27,22.109,22.109,0,0,1-8.228-6.489,3.618,3.618,0,0,1-.875-2.229,3.5,3.5,0,0,1,1.663-2.871,4.085,4.085,0,0,1,2.217-.718,3.9,3.9,0,0,1,3.244,1.675,13.9,13.9,0,0,0,5.38,4.26,17.581,17.581,0,0,0,7.381,1.476,13.578,13.578,0,0,0,7-1.873,13.421,13.421,0,0,0,5.065-5.5,18.394,18.394,0,0,0,1.937-8.642v-3.9a18.4,18.4,0,0,1-6.506,6.851,17.085,17.085,0,0,1-9.1,2.468,19.723,19.723,0,0,1-10.5-2.824,19.256,19.256,0,0,1-7.2-7.848,24.6,24.6,0,0,1-2.573-11.39,23.341,23.341,0,0,1,2.772-11.472,19.927,19.927,0,0,1,7.755-7.843A22.547,22.547,0,0,1,446.383,27a22.174,22.174,0,0,1,11.18,2.813Zm-3.956,32.3a13.141,13.141,0,0,0,4.983-5.3,16.193,16.193,0,0,0,1.8-7.685A16.461,16.461,0,0,0,458.6,41.4a13.141,13.141,0,0,0-4.983-5.339,14.693,14.693,0,0,0-14.483,0,13.421,13.421,0,0,0-5.007,5.339,16.134,16.134,0,0,0-1.821,7.726,15.877,15.877,0,0,0,1.821,7.685,13.422,13.422,0,0,0,5.024,5.3,14.658,14.658,0,0,0,14.483,0Z" transform="translate(-176.795 -11.242)" fill="#f734a9"/>
        <path id="Caminho_2086" data-name="Caminho 2086" d="M510.78,75.558a15.656,15.656,0,0,1-6.109-6.174,18.241,18.241,0,0,1-2.182-8.969,18.369,18.369,0,0,1,2.182-9.027,15.655,15.655,0,0,1,6.109-6.174A17.681,17.681,0,0,1,519.708,43a17.418,17.418,0,0,1,8.817,2.229,15.912,15.912,0,0,1,6.1,6.174,18.136,18.136,0,0,1,2.211,9.027,18.236,18.236,0,0,1-2.176,8.969,15.8,15.8,0,0,1-6.1,6.162,18.854,18.854,0,0,1-17.786,0Zm14.588-4.919a10.375,10.375,0,0,0,3.927-4.172,12.8,12.8,0,0,0,1.4-6.051,12.989,12.989,0,0,0-1.4-6.08,10.34,10.34,0,0,0-3.927-4.2,11.548,11.548,0,0,0-11.4,0,10.568,10.568,0,0,0-3.956,4.2,12.79,12.79,0,0,0-1.389,6.08,12.61,12.61,0,0,0,1.43,6.051,10.6,10.6,0,0,0,3.956,4.172,11.548,11.548,0,0,0,11.4,0Z" transform="translate(-209.273 -17.906)" fill="#f734a9"/>
        <text id="_" data-name="®" transform="translate(320.346 13.014) rotate(-0.53)" fill="#f734a9" font-size="6" font-family="Helvetica" letter-spacing="-0.08em"><tspan x="0" y="0">®</tspan></text>
        <path id="Caminho_2087" data-name="Caminho 2087" d="M30.511,69.3l.181-.1a110.451,110.451,0,0,0,12.715-7.422c.922,2.725-2.918,13.042-2.918,13.042s-6.734,7.195-13.544,7.924a27.114,27.114,0,0,0,4.919-5.993S31.556,71.143,30.511,69.3ZM4.766,55.475A27.327,27.327,0,0,0,.1,61.672c-.9-6.786,4.5-15.031,4.5-15.031s9.1-6.2,11.968-5.94a110.4,110.4,0,0,0-4.2,14.1l-.053.2C10.286,54.425,4.766,55.475,4.766,55.475Zm10.725,1.208a108.3,108.3,0,0,1,4.085-14.746c.14-.379.274-.747.414-1.115h0a58.9,58.9,0,0,1,6.2-12.254h0a41.529,41.529,0,0,1,3.3-4.266h0l.584-.619h0c.286-.309.584-.584.864-.9a13.6,13.6,0,0,0,.945,5.462,24.842,24.842,0,0,0,8.286,10.568,24.56,24.56,0,0,0,12.6,5.158,13.7,13.7,0,0,0,5.182-.519c-.362.624-.735,1.243-1.167,1.861h0c-3.169,4.791-7.872,9.511-14.541,14.133a107.128,107.128,0,0,1-12.919,7.586,3.915,3.915,0,0,1-.379.2,4.388,4.388,0,0,1-1.249.373h0a6.419,6.419,0,0,1-1.47.047,12.388,12.388,0,0,1-6.261-2.626c-2.69-2.048-4.359-4.7-4.557-6.9h0v-.759a3.145,3.145,0,0,1,.076-.531h0A.5.5,0,0,1,15.491,56.683Zm11.933-2.206c3.18,2.445,7.5,2.159,9.651-.636s1.342-7.049-1.838-9.494-7.5-2.159-9.651.642S24.267,52.033,27.424,54.478ZM69.945,0s-1.214,1.3-2.988,3.274c-.887.992-1.92,2.142-3.011,3.4S61.7,9.255,60.545,10.6c-.4.473-.817.934-1.231,1.389H56.268l-.834.123h-.222l-.613.047H54.26l-.49.041-.373.041-.455.047-.379.041-.443.058-.385.053-.461.064-.356.053-.735.169-.408.07-.391.076-.432.082-.362.076-.443.1-.338.076-.449.111-.315.082-.478.123-.21.058-1.167.344h-.064l-.525.169-.233.082c-.169.053-.338.117-.5.175l-.245.088-.508.187-.222.088-.525.21-.152.064c-.846.356-1.686.747-2.509,1.167l-.123.07c-.187.093-.368.193-.584.3l-.146.082c-.181.1-.368.2-.549.315a.688.688,0,0,0-.111.064,31.678,31.678,0,0,0-3.1,2.089.228.228,0,0,0-.058.047c-.193.14-.385.292-.584.443h0c-.893,1.937-.834,4.429.2,7.171a22.5,22.5,0,0,0,7.586,9.628c6.57,5,14.255,6.232,18.089,3.157v-.058a31.936,31.936,0,0,0,1.33-3.571v-.053c.064-.216.128-.432.187-.648a.693.693,0,0,1,.041-.134c.053-.2.111-.408.163-.619l.035-.14c.053-.21.105-.42.152-.636v-.07c.2-.922.373-1.844.5-2.766v-.181l.07-.584v-.228l.053-.554v-.228c0-.187.029-.373.041-.584v-.187c.035-.624.058-1.255.07-1.885V23l-.07-.782a1.529,1.529,0,0,0-.041-.426c-.041-.146,0-.274-.047-.408s0-.274-.047-.408l-.053-.408a3.463,3.463,0,0,0-.058-.42c-.018-.14-.041-.263-.058-.4l-.07-.432a2.925,2.925,0,0,0-.058-.385c-.018-.128-.053-.309-.082-.461s-.041-.239-.064-.362-.07-.385-.111-.584a.462.462,0,0,0-.041-.233c-.053-.268-.111-.537-.169-.805a1.289,1.289,0,0,0-.064-.3c-.023-.093-.076-.356-.117-.537s-.053-.222-.082-.327-.076-.338-.117-.508-.058-.222-.082-.333-.088-.344-.128-.513l-.088-.321-.035-.134c.338-.513.677-1.033,1.027-1.54,1-1.459,2.007-2.918,2.918-4.295s1.751-2.673,2.5-3.787c1.459-2.223,2.4-3.723,2.4-3.723Z" transform="translate(0.003)" fill="#fff"/>
        <path id="Caminho_2088" data-name="Caminho 2088" d="M145.663,116.47v13.847H144.24v-.654a5.876,5.876,0,0,1-2.918.846,4.277,4.277,0,0,1-1.354-.193,2.713,2.713,0,0,1-1.079-.694q-1.045-1.039-1.039-3.845a6.9,6.9,0,0,1,.934-4.05,3.62,3.62,0,0,1,3.093-1.243,11.967,11.967,0,0,1,2.375.251V116.47Zm-5.012,12.616a2.579,2.579,0,0,0,.9.134,4.785,4.785,0,0,0,1.231-.187,6.543,6.543,0,0,0,1.074-.356l.385-.169v-6.541a12.734,12.734,0,0,0-2.293-.233,2.212,2.212,0,0,0-2.048.939,5.66,5.66,0,0,0-.584,2.918,4.768,4.768,0,0,0,.677,3.011,1.657,1.657,0,0,0,.659.484Z" transform="translate(-57.41 -48.507)" fill="#fff"/>
        <path id="Caminho_2089" data-name="Caminho 2089" d="M162.289,131.961l.584-.058.041,1.138a27,27,0,0,1-3.764.309,3.3,3.3,0,0,1-2.918-1.2,7.165,7.165,0,0,1-.922-3.775q0-5.077,4.032-5.071a3.7,3.7,0,0,1,2.918,1.085,5.087,5.087,0,0,1,.963,3.425l-.076,1.1h-6.372a3.968,3.968,0,0,0,.584,2.375,2.375,2.375,0,0,0,2.019.77A27.254,27.254,0,0,0,162.289,131.961Zm-.519-4.184a4.2,4.2,0,0,0-.584-2.509,2.217,2.217,0,0,0-1.856-.729,2.375,2.375,0,0,0-1.926.77,3.875,3.875,0,0,0-.665,2.468Z" transform="translate(-64.682 -51.348)" fill="#fff"/>
        <path id="Caminho_2090" data-name="Caminho 2090" d="M176.032,123.35a16.888,16.888,0,0,1,2.159.228l.461.058-.058,1.167a22.376,22.376,0,0,0-2.276-.175,2.643,2.643,0,0,0-2.223.782,5.131,5.131,0,0,0-.584,2.918,5.428,5.428,0,0,0,.548,2.918,2.639,2.639,0,0,0,2.287.829l2.276-.175.058,1.167a19.61,19.61,0,0,1-2.684.268,3.635,3.635,0,0,1-3.116-1.167,6.746,6.746,0,0,1-.881-3.851,6.1,6.1,0,0,1,.928-3.857A3.87,3.87,0,0,1,176.032,123.35Z" transform="translate(-71.633 -51.373)" fill="#fff"/>
        <path id="Caminho_2091" data-name="Caminho 2091" d="M186.21,128.349a6.132,6.132,0,0,1,.945-3.822,4.94,4.94,0,0,1,6.378,0,6.22,6.22,0,0,1,.934,3.822,6.513,6.513,0,0,1-.887,3.834,4.99,4.99,0,0,1-6.483,0A6.481,6.481,0,0,1,186.21,128.349Zm1.488,0a6.165,6.165,0,0,0,.508,2.958c.344.584,1.056.846,2.142.846s1.8-.274,2.13-.834a6.242,6.242,0,0,0,.5-2.964,5.459,5.459,0,0,0-.554-2.918,3.09,3.09,0,0,0-4.161,0,5.214,5.214,0,0,0-.566,2.883Z" transform="translate(-77.551 -51.377)" fill="#fff"/>
        <path id="Caminho_2092" data-name="Caminho 2092" d="M204.59,130.317V116.47h1.447v13.847Z" transform="translate(-85.206 -48.507)" fill="#fff"/>
        <path id="Caminho_2093" data-name="Caminho 2093" d="M218.3,131.978l.584-.058.041,1.138a27,27,0,0,1-3.764.309,3.383,3.383,0,0,1-2.947-1.2,6.439,6.439,0,0,1-.869-3.752q0-5.077,4.032-5.071a3.7,3.7,0,0,1,2.918,1.085,5.087,5.087,0,0,1,.963,3.425l-.076,1.1h-6.4a3.968,3.968,0,0,0,.584,2.375,2.369,2.369,0,0,0,2.019.77C216.335,132.095,217.309,132.06,218.3,131.978Zm-.519-4.184a4.2,4.2,0,0,0-.584-2.509,2.217,2.217,0,0,0-1.856-.729,2.375,2.375,0,0,0-1.926.77,3.875,3.875,0,0,0-.665,2.468Z" transform="translate(-88.017 -51.365)" fill="#fff"/>
        <path id="Caminho_2094" data-name="Caminho 2094" d="M238.631,124.633q-2.112,0-2.107,1.465a1.021,1.021,0,0,0,.484.957,8.169,8.169,0,0,0,2.2.584,5.788,5.788,0,0,1,2.427.84,2.394,2.394,0,0,1,.718,2.025,2.515,2.515,0,0,1-.957,2.177,4.668,4.668,0,0,1-2.789.694,17.316,17.316,0,0,1-2.813-.268l-.583-.1.076-1.249a25.012,25.012,0,0,0,3.314.327,3.379,3.379,0,0,0,1.71-.356,1.29,1.29,0,0,0,.584-1.2,1.214,1.214,0,0,0-.5-1.138,7.492,7.492,0,0,0-2.2-.584,5.835,5.835,0,0,1-2.41-.788,2.249,2.249,0,0,1-.718-1.931,2.334,2.334,0,0,1,1-2.083,4.3,4.3,0,0,1,2.474-.671,20.129,20.129,0,0,1,2.953.268l.543.093-.041,1.237A25.375,25.375,0,0,0,238.631,124.633Z" transform="translate(-97.896 -51.366)" fill="#fff"/>
        <path id="Caminho_2095" data-name="Caminho 2095" d="M257.609,131.961l.584-.058.041,1.138a27,27,0,0,1-3.764.309,3.383,3.383,0,0,1-2.947-1.2,6.676,6.676,0,0,1-.893-3.775q0-5.077,4.032-5.071a3.7,3.7,0,0,1,2.918,1.085,5.087,5.087,0,0,1,.963,3.425l-.076,1.1h-6.372a3.968,3.968,0,0,0,.583,2.375,2.375,2.375,0,0,0,2.019.77A27.254,27.254,0,0,0,257.609,131.961Zm-.519-4.172a4.2,4.2,0,0,0-.584-2.509,2.217,2.217,0,0,0-1.856-.729,2.375,2.375,0,0,0-1.926.77,3.875,3.875,0,0,0-.665,2.468Z" transform="translate(-104.381 -51.348)" fill="#fff"/>
        <path id="Caminho_2096" data-name="Caminho 2096" d="M274,123.68h1.447v9.64H274v-.671a5.514,5.514,0,0,1-2.853.864,2.875,2.875,0,0,1-2.614-1.021,7.677,7.677,0,0,1-.648-3.781v-5.03h1.447v5.012a7.107,7.107,0,0,0,.368,2.818c.245.473.794.712,1.657.712a4.8,4.8,0,0,0,1.3-.187,5.364,5.364,0,0,0,1-.356l.35-.169Z" transform="translate(-111.565 -51.51)" fill="#fff"/>
        <path id="Caminho_2097" data-name="Caminho 2097" d="M288.241,124.633q-2.112,0-2.107,1.465a1.021,1.021,0,0,0,.484.957,8.169,8.169,0,0,0,2.2.584,5.789,5.789,0,0,1,2.427.84,2.393,2.393,0,0,1,.712,2.025,2.509,2.509,0,0,1-.951,2.177,4.668,4.668,0,0,1-2.789.694,17.318,17.318,0,0,1-2.813-.268l-.583-.1.076-1.249a24.924,24.924,0,0,0,3.314.327,3.379,3.379,0,0,0,1.71-.356,1.29,1.29,0,0,0,.584-1.2,1.214,1.214,0,0,0-.5-1.138,7.493,7.493,0,0,0-2.2-.584,5.835,5.835,0,0,1-2.41-.788,2.249,2.249,0,0,1-.718-1.931,2.334,2.334,0,0,1,1-2.083,4.3,4.3,0,0,1,2.474-.671,20.13,20.13,0,0,1,2.953.268l.543.093-.041,1.237A25.374,25.374,0,0,0,288.241,124.633Z" transform="translate(-118.557 -51.366)" fill="#fff"/>
        <path id="Caminho_2098" data-name="Caminho 2098" d="M308.24,137.457V123.535h1.424v.694a5.543,5.543,0,0,1,2.918-.887,3.034,3.034,0,0,1,2.661,1.167,6.753,6.753,0,0,1,.829,3.845,5.981,5.981,0,0,1-.975,3.845,3.993,3.993,0,0,1-3.227,1.167,10.305,10.305,0,0,1-2.159-.21v4.3Zm4.085-12.837a4.522,4.522,0,0,0-1.249.193,6.419,6.419,0,0,0-1.05.385l-.362.193v6.5a14.867,14.867,0,0,0,2.077.21,2.524,2.524,0,0,0,2.194-.887,7.211,7.211,0,0,0,.041-5.777,1.885,1.885,0,0,0-1.628-.805Z" transform="translate(-128.374 -51.365)" fill="#fff"/>
        <path id="Caminho_2099" data-name="Caminho 2099" d="M325.66,133.166v-9.64h1.424v1.307a9.418,9.418,0,0,1,3.5-1.523v1.465a10.781,10.781,0,0,0-1.686.484,12.214,12.214,0,0,0-1.342.584l-.484.251v7.072Z" transform="translate(-135.629 -51.356)" fill="#fff"/>
        <path id="Caminho_2100" data-name="Caminho 2100" d="M336,128.349a6.132,6.132,0,0,1,.945-3.822,4.94,4.94,0,0,1,6.378,0,6.158,6.158,0,0,1,.934,3.822,6.513,6.513,0,0,1-.887,3.834,4.99,4.99,0,0,1-6.483,0A6.481,6.481,0,0,1,336,128.349Zm1.488,0a6.165,6.165,0,0,0,.508,2.958c.344.584,1.056.846,2.142.846s1.8-.274,2.13-.834a6.243,6.243,0,0,0,.5-2.964,5.4,5.4,0,0,0-.554-2.918,3.09,3.09,0,0,0-4.16,0,5.243,5.243,0,0,0-.549,2.883Z" transform="translate(-139.935 -51.377)" fill="#fff"/>
        <path id="Caminho_2101" data-name="Caminho 2101" d="M352.563,130.316v-9.389h1.424v9.412a4.569,4.569,0,0,1-.636,2.661,7.235,7.235,0,0,1-2.567,1.867l-.584-1.115a6.506,6.506,0,0,0,1.931-1.476A3.536,3.536,0,0,0,352.563,130.316Zm0-11.571V117.07h1.424v1.675Z" transform="translate(-145.849 -48.757)" fill="#fff"/>
        <path id="Caminho_2102" data-name="Caminho 2102" d="M367.7,131.961l.584-.058.035,1.138a26.993,26.993,0,0,1-3.758.309,3.4,3.4,0,0,1-2.953-1.2,6.613,6.613,0,0,1-.893-3.775q0-5.077,4.032-5.071a3.688,3.688,0,0,1,2.918,1.085,5.087,5.087,0,0,1,.963,3.425l-.076,1.1h-6.372a3.962,3.962,0,0,0,.583,2.375,2.334,2.334,0,0,0,2.013.77A27.436,27.436,0,0,0,367.7,131.961Zm-.525-4.184a4.2,4.2,0,0,0-.584-2.509,2.212,2.212,0,0,0-1.85-.729,2.381,2.381,0,0,0-1.931.77,3.875,3.875,0,0,0-.648,2.48Z" transform="translate(-150.231 -51.348)" fill="#fff"/>
        <path id="Caminho_2103" data-name="Caminho 2103" d="M382.423,122.8h-3.064v4.61a6.191,6.191,0,0,0,.239,2.182c.163.344.543.519,1.167.519l1.716-.117.093,1.167a13.446,13.446,0,0,1-1.966.216,2.516,2.516,0,0,1-2.083-.735,4.785,4.785,0,0,1-.584-2.8v-5.077H376.57v-1.249h1.371V118.57h1.43v2.953h3.063Z" transform="translate(-156.832 -49.382)" fill="#fff"/>
        <path id="Caminho_2104" data-name="Caminho 2104" d="M388.92,128.349a6.16,6.16,0,0,1,.939-3.822,4.94,4.94,0,0,1,6.378,0,6.107,6.107,0,0,1,.934,3.822,6.5,6.5,0,0,1-.887,3.834,4.974,4.974,0,0,1-6.471,0A6.422,6.422,0,0,1,388.92,128.349Zm1.482,0a6.091,6.091,0,0,0,.514,2.958,2.309,2.309,0,0,0,2.142.846c1.091,0,1.791-.274,2.13-.834a6.17,6.17,0,0,0,.5-2.964,5.146,5.146,0,0,0-.584-2.918,3.082,3.082,0,0,0-4.155,0,5.244,5.244,0,0,0-.549,2.883Z" transform="translate(-161.975 -51.377)" fill="#fff"/>
        <path id="Caminho_2105" data-name="Caminho 2105" d="M409.739,124.633q-2.1,0-2.1,1.465a1.021,1.021,0,0,0,.484.957,8.093,8.093,0,0,0,2.194.583,5.836,5.836,0,0,1,2.433.84,2.411,2.411,0,0,1,.712,2.025,2.509,2.509,0,0,1-.951,2.177,4.7,4.7,0,0,1-2.789.694,17.383,17.383,0,0,1-2.818-.268l-.584-.1.082-1.249a24.921,24.921,0,0,0,3.314.327,3.4,3.4,0,0,0,1.71-.356,1.29,1.29,0,0,0,.584-1.2,1.2,1.2,0,0,0-.5-1.138,7.434,7.434,0,0,0-2.194-.584,5.911,5.911,0,0,1-2.416-.788,2.264,2.264,0,0,1-.712-1.931,2.334,2.334,0,0,1,.992-2.083,4.324,4.324,0,0,1,2.48-.671,20.191,20.191,0,0,1,2.953.268l.537.093-.035,1.237A25.449,25.449,0,0,0,409.739,124.633Z" transform="translate(-169.164 -51.366)" fill="#fff"/>
      </g>
    </g>
  </g>
</svg>
